<svg width="900" height="675" viewBox="0 0 900 675" xmlns="http://www.w3.org/2000/svg" role="img" aria-labelledby="title desc">
<title id="title">Mockup de componentes Loxone</title>
<desc id="desc">Visual propio de TechZen con Miniserver, extensiones, botonera tactil y automatizaciones centralizadas.</desc>
<rect width="900" height="675" fill="#07111F"/>
<rect x="62" y="70" width="776" height="535" rx="34" fill="#0D1420" stroke="#27E5FF" stroke-opacity=".35" stroke-width="3"/>
<rect x="120" y="155" width="270" height="270" rx="26" fill="#111B2B" stroke="#27E5FF" stroke-opacity=".55" stroke-width="4"/>
<text x="255" y="222" text-anchor="middle" fill="#FFFFFF" font-family="Arial" font-size="30" font-weight="900">MINISERVER</text>
<circle cx="255" cy="302" r="50" fill="#27E5FF" fill-opacity=".16" stroke="#27E5FF" stroke-width="6"/>
<path d="M220 375h70" stroke="#27E5FF" stroke-width="8" stroke-linecap="round"/>
<g fill="#1E7BFF"><rect x="450" y="145" width="78" height="210" rx="12"/><rect x="548" y="145" width="78" height="210" rx="12"/><rect x="646" y="145" width="78" height="210" rx="12"/></g>
<text x="587" y="395" text-anchor="middle" fill="#27E5FF" font-family="Arial" font-size="24" font-weight="800">Extensiones</text>
<rect x="480" y="455" width="180" height="78" rx="28" fill="#101A28" stroke="#27E5FF" stroke-opacity=".65" stroke-width="4"/>
<circle cx="530" cy="494" r="15" fill="#27E5FF"/><circle cx="570" cy="494" r="15" fill="#27E5FF"/><circle cx="610" cy="494" r="15" fill="#27E5FF"/>
<path d="M390 290h58M626 290h58M570 420v35" stroke="#27E5FF" stroke-width="6" stroke-linecap="round" stroke-dasharray="10 12"/>
<text x="450" y="575" text-anchor="middle" fill="#FFFFFF" font-family="Arial" font-size="34" font-weight="900">Control centralizado, escenas y automatizacion</text>
</svg>
